<svg width="51" height="47" viewBox="0 0 51 47" fill="none" xmlns="http://www.w3.org/2000/svg">
<path d="M13.6744 18.8038C13.2327 18.5029 12.7898 18.3525 12.3481 18.3525H10.3628V29.1899H12.3493C12.791 29.1899 13.2338 29.0395 13.6755 28.7387C14.1172 28.4378 14.3381 27.9866 14.3381 27.3839V20.1586C14.3369 19.5569 14.1149 19.1046 13.6744 18.8038ZM46.0025 0.5159H4.99754C2.24263 0.5159 0.00683036 2.54811 0 5.0596V42.4465C0.00683036 44.958 2.24263 46.9902 4.99754 46.9902H46.0025C48.7585 46.9902 50.9932 44.958 51 42.4465V5.0596C50.9932 2.54811 48.7574 0.5159 46.0025 0.5159ZM17.554 27.4036C17.554 29.3549 16.2323 32.3114 12.0487 32.3052H6.76661V15.1408H12.1603C16.1948 15.1408 17.5517 18.0932 17.5529 20.0455L17.554 27.4036ZM29.0154 18.2062H22.95V22.1918H26.6577V25.2593H22.95V29.2439H29.0165V32.3114H21.938C20.6675 32.3415 19.6111 31.4265 19.5792 30.2688V17.2902C19.5485 16.1336 20.5537 15.1729 21.823 15.1439H29.0165L29.0154 18.2062ZM40.8137 30.1661C39.311 33.356 36.6187 32.7212 35.4131 30.1661L31.0269 15.1449H34.7346L38.1168 26.9419L41.483 15.1449H45.1919L40.8137 30.1661Z" fill="#27AE60"/>
</svg>
